<?xml version="1.0" encoding="utf-8"?>
<svg xmlns="http://www.w3.org/2000/svg" viewBox="0 0 60 59">
  <linearGradient id="a" x1=".8442" x2="12.8442" y1="30.6701" y2="30.6701" gradientUnits="userSpaceOnUse">
    <stop offset="6e-8" stop-color="#fc3"/>
    <stop offset=".5776" stop-color="#ffca33"/>
    <stop offset=".7853" stop-color="#ffc333"/>
    <stop offset=".9099" stop-color="#ffba33"/>
  </linearGradient>
  <path fill="none" stroke="url(#a)" stroke-linecap="round" stroke-linejoin="round" stroke-miterlimit="10" stroke-width="3" d="M11.3 54.9c-5 0-9-4-9-9V15.3c0-5 1.3-8.9 7.5-8.9"/>
  <linearGradient id="b" x1="17.1445" x2="50.9936" y1="50.4196" y2="50.4196" gradientUnits="userSpaceOnUse">
    <stop offset="6e-8" stop-color="#fc3"/>
    <stop offset=".5776" stop-color="#ffca33"/>
    <stop offset=".7853" stop-color="#ffc333"/>
    <stop offset=".9099" stop-color="#ffba33"/>
  </linearGradient>
  <path fill="none" stroke="url(#b)" stroke-linecap="round" stroke-linejoin="round" stroke-miterlimit="10" stroke-width="3" d="M49.5 45.9c0 5-4 9-9 9H18.6"/>
  <linearGradient id="c" x1="16.6334" x2="50.9936" y1="23.7459" y2="23.7459" gradientUnits="userSpaceOnUse">
    <stop offset="6e-8" stop-color="#fc3"/>
    <stop offset=".5776" stop-color="#ffca33"/>
    <stop offset=".7853" stop-color="#ffc333"/>
    <stop offset=".9099" stop-color="#ffba33"/>
  </linearGradient>
  <path fill="none" stroke="url(#c)" stroke-linecap="round" stroke-linejoin="round" stroke-miterlimit="10" stroke-width="3" d="M18.1 6.3h22.4c5 0 9 4 9 9v25.9"/>
  <linearGradient id="d" x1="3.6299" x2="48.3755" y1="18.2826" y2="18.2826" gradientUnits="userSpaceOnUse">
    <stop offset="6e-8" stop-color="#fc3"/>
    <stop offset=".5776" stop-color="#ffca33"/>
    <stop offset=".7853" stop-color="#ffc333"/>
    <stop offset=".9099" stop-color="#ffba33"/>
  </linearGradient>
  <path fill="none" stroke="url(#d)" stroke-miterlimit="10" stroke-width="3" d="M3.6 18.3h44.8"/>
  <linearGradient id="e" x1="6.9372" x2="25.6537" y1="27.6031" y2="27.6031" gradientUnits="userSpaceOnUse">
    <stop offset="6e-8" stop-color="#fc3"/>
    <stop offset=".5776" stop-color="#ffca33"/>
    <stop offset=".7853" stop-color="#ffc333"/>
    <stop offset=".9099" stop-color="#ffba33"/>
  </linearGradient>
  <path fill="none" stroke="url(#e)" stroke-linecap="round" stroke-miterlimit="10" stroke-width="3" d="M8.4 27.6h15.8"/>
  <linearGradient id="f" x1="27.0913" x2="34.4683" y1="27.6031" y2="27.6031" gradientUnits="userSpaceOnUse">
    <stop offset="6e-8" stop-color="#fc3"/>
    <stop offset=".5776" stop-color="#ffca33"/>
    <stop offset=".7853" stop-color="#ffc333"/>
    <stop offset=".9099" stop-color="#ffba33"/>
  </linearGradient>
  <path fill="none" stroke="url(#f)" stroke-linecap="round" stroke-miterlimit="10" stroke-width="3" d="M28.6 27.6H33"/>
  <linearGradient id="g" x1="7.1976" x2="30.0913" y1="34.5199" y2="34.5199" gradientUnits="userSpaceOnUse">
    <stop offset="6e-8" stop-color="#fc3"/>
    <stop offset=".5776" stop-color="#ffca33"/>
    <stop offset=".7853" stop-color="#ffc333"/>
    <stop offset=".9099" stop-color="#ffba33"/>
  </linearGradient>
  <path fill="none" stroke="url(#g)" stroke-linecap="round" stroke-miterlimit="10" stroke-width="3" d="M8.7 34.5h19.9"/>
  <linearGradient id="h" x1="7.2788" x2="26.707" y1="40.3314" y2="40.3314" gradientUnits="userSpaceOnUse">
    <stop offset="6e-8" stop-color="#fc3"/>
    <stop offset=".5776" stop-color="#ffca33"/>
    <stop offset=".7853" stop-color="#ffc333"/>
    <stop offset=".9099" stop-color="#ffba33"/>
  </linearGradient>
  <path fill="none" stroke="url(#h)" stroke-linecap="round" stroke-miterlimit="10" stroke-width="3" d="M8.8 40.3h16.4"/>
  <linearGradient id="i" x1="27.6305" x2="59.5154" y1="28.9707" y2="28.9707" gradientUnits="userSpaceOnUse">
    <stop offset="6e-8" stop-color="#fc3"/>
    <stop offset=".5776" stop-color="#ffca33"/>
    <stop offset=".7853" stop-color="#ffc333"/>
    <stop offset=".9099" stop-color="#ffba33"/>
  </linearGradient>
  <path fill="#fff" stroke="url(#i)" stroke-linecap="round" stroke-miterlimit="10" stroke-width="3" d="M57.1 15.2c-1.5-1.5-3.7-1.5-5.1 0L31.5 36.5c-.1.1-.1.1-.1.2l-2.2 6.4c-.2.7.1 1 .8.7l6.5-2.8c.1 0 .1-.1.2-.1l16.9-17.6-5.1-4.4 5.1 4.4 3.6-3.8c1.1-1.2 1.1-3.1-.1-4.3z"/>
  <linearGradient id="j" x1="7.0336" x2="26.707" y1="46.362" y2="46.362" gradientUnits="userSpaceOnUse">
    <stop offset="6e-8" stop-color="#fc3"/>
    <stop offset=".5776" stop-color="#ffca33"/>
    <stop offset=".7853" stop-color="#ffc333"/>
    <stop offset=".9099" stop-color="#ffba33"/>
  </linearGradient>
  <path fill="#fff" stroke="url(#j)" stroke-linecap="round" stroke-linejoin="round" stroke-miterlimit="10" stroke-width="3" d="M25.2 46.4H8.6h16.6z"/>
  <linearGradient id="k" x1="36.963" x2="44.34" y1="46.362" y2="46.362" gradientUnits="userSpaceOnUse">
    <stop offset="6e-8" stop-color="#fc3"/>
    <stop offset=".5776" stop-color="#ffca33"/>
    <stop offset=".7853" stop-color="#ffc333"/>
    <stop offset=".9099" stop-color="#ffba33"/>
  </linearGradient>
  <path fill="none" stroke="url(#k)" stroke-linecap="round" stroke-miterlimit="10" stroke-width="3" d="M38.5 46.4h4.3"/>
  <linearGradient id="l" x1="6.9372" x2="32.1374" y1="12.6811" y2="12.6811" gradientUnits="userSpaceOnUse">
    <stop offset="6e-8" stop-color="#fc3"/>
    <stop offset=".5776" stop-color="#ffca33"/>
    <stop offset=".7853" stop-color="#ffc333"/>
    <stop offset=".9099" stop-color="#ffba33"/>
  </linearGradient>
  <path fill="none" stroke="url(#l)" stroke-linecap="round" stroke-linejoin="round" stroke-miterlimit="10" stroke-width="3" d="M8.4 12.7h22.2"/>
  <linearGradient id="m" x1="40.7855" x2="43.5729" y1="12.6811" y2="12.6811" gradientUnits="userSpaceOnUse">
    <stop offset="6e-8" stop-color="#fa0"/>
    <stop offset=".07932168" stop-color="#f9ac00"/>
    <stop offset=".3887" stop-color="#e4b200"/>
    <stop offset=".6968" stop-color="#d8b600"/>
    <stop offset="1" stop-color="#d4b700"/>
  </linearGradient>
  <path fill="url(#m)" d="M41.2 13.7c.1.1.3.2.4.3.2.1.4.1.5.1.2 0 .4 0 .5-.1.2-.1.3-.2.4-.3.1-.1.2-.3.3-.4s.1-.4.1-.5 0-.4-.1-.5c-.1-.2-.2-.3-.3-.4-.1-.1-.3-.2-.4-.3-.2-.1-.4-.1-.5-.1-.2 0-.4 0-.5.1s-.3.2-.4.3c-.1.1-.2.3-.3.4-.1.2-.1.4-.1.5s0 .4.1.5.2.2.3.4z"/>
  <linearGradient id="n" x1="35.7855" x2="38.5729" y1="12.6811" y2="12.6811" gradientUnits="userSpaceOnUse">
    <stop offset="6e-8" stop-color="#fa0"/>
    <stop offset=".07932168" stop-color="#f9ac00"/>
    <stop offset=".3887" stop-color="#e4b200"/>
    <stop offset=".6968" stop-color="#d8b600"/>
    <stop offset="1" stop-color="#d4b700"/>
  </linearGradient>
  <path fill="url(#n)" d="M36.2 13.7c.1.1.3.2.4.3.2.1.4.1.5.1.2 0 .4 0 .5-.1.2-.1.3-.2.4-.3.1-.1.2-.3.3-.4s.1-.4.1-.5 0-.4-.1-.5c-.1-.2-.2-.3-.3-.4-.1-.1-.3-.2-.4-.3-.2-.1-.4-.1-.5-.1-.2 0-.4 0-.5.1s-.3.2-.4.3c-.1.1-.2.3-.3.4-.1.2-.1.4-.1.5s0 .4.1.5.2.2.3.4z"/>
</svg>
