<?xml version="1.0" encoding="utf-8"?>
<svg xmlns="http://www.w3.org/2000/svg" viewBox="0 0 60 59">
  <linearGradient id="o" x1="19.3878" x2="32.5558" y1="19.7143" y2="19.7143" gradientUnits="userSpaceOnUse">
    <stop offset="0" stop-color="#00af89"/>
    <stop offset="1" stop-color="#64af2e"/>
  </linearGradient>
  <path fill="none" stroke="url(#o)" stroke-linejoin="round" stroke-miterlimit="10" stroke-width="3" d="M30.7 13.1l.3-2.7c.1-1-.7-1.9-1.7-2L24.8 8c-1.1-.1-2 .6-2.1 1.6l-1.8 20.9 8.4.7 1.1-11.7"/>
  <linearGradient id="p" x1="22.8071" x2="31.2036" y1="6.7436" y2="6.7436" gradientUnits="userSpaceOnUse">
    <stop offset="0" stop-color="#00af89"/>
    <stop offset="1" stop-color="#64af2e"/>
  </linearGradient>
  <path fill="#fff" stroke="url(#p)" stroke-miterlimit="10" stroke-width="3.5412" d="M28.5 4.4l-2.2-.2c-.6-.1-1.2.4-1.2 1l-.3 3.5 4.4.4.3-3.7c0-.5-.4-1-1-1z"/>
  <linearGradient id="q" x1="8.986" x2="34.4571" y1="40.3546" y2="40.3546" gradientUnits="userSpaceOnUse">
    <stop offset="0" stop-color="#00af89"/>
    <stop offset="1" stop-color="#64af2e"/>
  </linearGradient>
  <path fill="none" stroke="url(#q)" stroke-linecap="round" stroke-linejoin="round" stroke-miterlimit="10" stroke-width="3" d="M10.5 40.4H33"/>
  <linearGradient id="r" x1="24.5126" x2="35.2843" y1="49.083" y2="49.083" gradientUnits="userSpaceOnUse">
    <stop offset="0" stop-color="#00af89"/>
    <stop offset="1" stop-color="#64af2e"/>
  </linearGradient>
  <path fill="none" stroke="url(#r)" stroke-miterlimit="10" stroke-width="2.9186" d="M30.5 44.4H29c-1.7 0-3 1.3-3 3v6.3h7.9v-6c-.1-1.8-1.6-3.3-3.4-3.3z"/>
  <linearGradient id="s" x1="33.1825" x2="48.3271" y1="32.5617" y2="32.5617" gradientUnits="userSpaceOnUse">
    <stop offset="0" stop-color="#00af89"/>
    <stop offset="1" stop-color="#64af2e"/>
  </linearGradient>
  <path fill="none" stroke="url(#s)" stroke-miterlimit="10" stroke-width="3" d="M33.5 16.7c7.4 1.5 13.3 8.3 13.3 16.2 0 7.9-5.1 14.1-12.5 15.6"/>
  <linearGradient id="t" x1="31.8295" x2="31.8295" y1="48.4905" y2="48.4905" gradientUnits="userSpaceOnUse">
    <stop offset="0" stop-color="#00af89"/>
    <stop offset="1" stop-color="#64af2e"/>
  </linearGradient>
  <linearGradient id="u" x1="24.6502" x2="29.4466" y1="6.2181" y2="6.2181" gradientUnits="userSpaceOnUse">
    <stop offset="0" stop-color="#00af89"/>
    <stop offset="1" stop-color="#64af2e"/>
  </linearGradient>
  <path fill="#fff" stroke="url(#u)" stroke-miterlimit="10" d="M28.3 4.7l-1.9-.2c-.5 0-.9.3-.9.8l-.2 2.3 3.5.3.2-2.4c0-.4-.3-.8-.7-.8z"/>
  <linearGradient id="v" x1="17.6203" x2="43.0914" y1="54.41" y2="54.41" gradientUnits="userSpaceOnUse">
    <stop offset="0" stop-color="#00af89"/>
    <stop offset="1" stop-color="#64af2e"/>
  </linearGradient>
  <path fill="none" stroke="url(#v)" stroke-linecap="round" stroke-linejoin="round" stroke-miterlimit="10" stroke-width="3" d="M19.1 54.4h22.5"/>
  <linearGradient id="w" x1="23.4079" x2="26.655" y1="33.5962" y2="33.5962" gradientUnits="userSpaceOnUse">
    <stop offset="0" stop-color="#00af89"/>
    <stop offset="1" stop-color="#64af2e"/>
  </linearGradient>
  <path fill="none" stroke="url(#w)" stroke-linecap="round" stroke-linejoin="round" stroke-miterlimit="10" stroke-width="3" d="M25.2 32.1l-.3 3"/>
  <linearGradient id="x" x1="26.6757" x2="34.9833" y1="16.4065" y2="16.4065" gradientUnits="userSpaceOnUse">
    <stop offset="0" stop-color="#00af89"/>
    <stop offset="1" stop-color="#64af2e"/>
  </linearGradient>
  <path fill="url(#x)" d="M30.8 12.3c-2.3 0-4.2 1.9-4.2 4.2s1.9 4.2 4.2 4.2 4.2-1.9 4.2-4.2-1.9-4.2-4.2-4.2zm0 6.1c-1.1 0-2-.9-2-2s.9-2 2-2 2 .9 2 2c.1 1.1-.8 2-2 2z"/>
</svg>
