<?xml version="1.0" encoding="UTF-8"?>
<svg xmlns="http://www.w3.org/2000/svg" width="60" height="59" viewBox="0 0 60 59">
	<title>
		design style guide
	</title>
    <defs>
        <linearGradient id="a" x1="150.495%" x2="-98.678%" y1="0%" y2="249.212%">
            <stop offset="0%" stop-color="#36C"/>
            <stop offset="100%" stop-color="#6DD7B3"/>
        </linearGradient>
    </defs>
    <path fill="url(#a)" d="M61.605 15.512c-.37-.739-1.114-1.293-1.856-1.57L18.062.554c-.186-.092-.371-.092-.464-.092A13.27 13.27 0 0 0 14.255 0C7.478 0 2 5.448 2 12.188v43.58C2 57.523 3.485 59 5.25 59h18.01c1.764 0 3.25-1.477 3.25-3.232v-6.37l3.806 5.17c.557.739 1.3 1.108 2.136 1.293h.464c.65 0 1.393-.185 1.95-.647L49.35 44.596c1.486-1.015 1.764-3.047.743-4.524l-3.528-4.801 5.756 1.846c.371.093.65.185 1.021.185.465 0 1.022-.092 1.486-.37.743-.369 1.3-1.107 1.578-1.846l5.478-17.081c.186-.831.186-1.662-.279-2.493zm-37.88 40.256c0 .277-.185.462-.464.462H5.25c-.279 0-.465-.185-.465-.462v-43.58c0-5.17 4.271-9.418 9.47-9.418 5.2 0 9.47 4.247 9.47 9.418v43.58zm24.14-13.665c0 .093-.093.185-.186.277L33.195 52.998c-.092.093-.278.093-.371.093-.093 0-.186-.093-.279-.185l-6.034-8.217v-8.495l7.52-5.448c.65-.461.743-1.292.279-1.938-.465-.647-1.3-.74-1.95-.277l-5.85 4.247v-9.326l1.393-1.015c.65-.462.743-1.293.279-1.94-.372-.553-1.114-.738-1.764-.461v-7.202l21.354 28.9a.695.695 0 0 1 .093.37zm11.327-24.93l-5.478 17.082a1.134 1.134 0 0 1-.186.277c-.093 0-.186.092-.371 0l-9.377-3.047-5.293-7.202s0-.092.093-.092l2.786-8.495c.278-.738-.186-1.477-.929-1.754-.743-.277-1.485.185-1.764.923l-2.228 6.74-5.57-7.478c0-.093.092-.093.092-.185l.464-1.385c.279-.739-.185-1.477-.928-1.754-.65-.185-1.3.092-1.578.646L24.56 5.54l34.352 10.988c.186.093.279.185.279.185v.462zM19.566 46c.765 0 1.434.7 1.434 1.5s-.67 1.5-1.434 1.5H9.434C8.669 49 8 48.3 8 47.5S8.67 46 9.434 46h10.132zm0-10c.765 0 1.434.7 1.434 1.5s-.67 1.5-1.434 1.5H9.434C8.669 39 8 38.3 8 37.5S8.67 36 9.434 36h10.132zm0-11c.765 0 1.434.7 1.434 1.5s-.67 1.5-1.434 1.5H9.434C8.669 28 8 27.3 8 26.5S8.67 25 9.434 25h10.132zM13.5 14a2.5 2.5 0 1 1 0-5 2.5 2.5 0 0 1 0 5zm16.73 30.414c-.384-.684-.288-1.563.289-2.052l8.164-6.057c.672-.488 1.537-.39 2.017.293.48.684.384 1.563-.288 2.052l-8.164 6.057c-.289.195-.577.293-.865.293a1.49 1.49 0 0 1-1.152-.586zM49.96 17.08c-.765-.273-1.53.182-1.817.91l-3.059 9.19c-.287.728.191 1.456.956 1.729.191 0 .287.091.478.091.574 0 1.147-.364 1.339-.91l3.059-9.281c.287-.728-.191-1.547-.956-1.729z" transform="translate(-2)"/>
</svg>
