<?xml version="1.0" encoding="UTF-8"?>
<svg xmlns="http://www.w3.org/2000/svg" width="180" height="195" viewBox="0 0 180 195">
    <title>
        Design at Wikimedia Foundation logo
    </title>
    <defs>
        <linearGradient id="a" x1="78.225%" x2="8.649%" y1="17.026%" y2="171.662%">
            <stop offset="0%" stop-color="#36C"/>
            <stop offset="100%" stop-color="#2D8B6A"/>
        </linearGradient>
    </defs>
    <g fill="none" fill-rule="evenodd">
        <g stroke="#9AA0A7" stroke-dasharray="3,3,3,3,3,3" opacity=".4">
            <path d="M90.037 53.783c25.837 0 46.783 20.966 46.783 46.83 0 25.863-20.946 46.83-46.783 46.83-25.838 0-46.784-20.967-46.784-46.83 0-25.864 20.946-46.83 46.784-46.83z"/>
            <path d="M90.037 44.808c-14.892 0-28.892 5.805-39.42 16.345-10.53 10.54-16.33 24.553-16.33 39.46 0 14.905 5.8 28.918 16.33 39.459 10.528 10.54 24.528 16.344 39.42 16.344 14.89 0 28.89-5.804 39.42-16.344 10.53-10.54 16.328-24.554 16.328-39.46 0-14.906-5.798-28.919-16.328-39.46-10.53-10.539-24.53-16.344-39.42-16.344zm0 133.67c-10.497 0-20.686-2.06-30.283-6.124-9.264-3.922-17.582-9.535-24.722-16.683a77.574 77.574 0 0 1-16.667-24.747c-4.06-9.607-6.118-19.805-6.118-30.311 0-10.507 2.058-20.706 6.118-30.313a77.594 77.594 0 0 1 16.667-24.747 77.508 77.508 0 0 1 24.722-16.682c9.597-4.064 19.786-6.124 30.283-6.124 10.496 0 20.685 2.06 30.282 6.124a77.508 77.508 0 0 1 24.722 16.682A77.594 77.594 0 0 1 161.708 70.3c4.06 9.607 6.118 19.806 6.118 30.313 0 10.506-2.058 20.704-6.118 30.311a77.574 77.574 0 0 1-16.667 24.747c-7.14 7.148-15.458 12.761-24.722 16.683-9.597 4.063-19.786 6.124-30.282 6.124zM96.733 0v197M83.459 0v197M178.929 183.893L.983 5.773M178.07 6.645L.988 183.899"/>
            <path d="M146.772 52.064c0 6.472-5.242 11.719-11.707 11.719-6.467 0-11.708-5.247-11.708-11.719 0-6.472 5.241-11.718 11.708-11.718 6.465 0 11.707 5.246 11.707 11.718zM56.647 52.064c0 6.472-5.242 11.719-11.707 11.719-6.467 0-11.707-5.247-11.707-11.719 0-6.472 5.24-11.718 11.707-11.718 6.465 0 11.707 5.246 11.707 11.718zM100.856 167.665c0 6.472-5.242 11.719-11.707 11.719-6.467 0-11.707-5.247-11.707-11.719 0-6.472 5.24-11.718 11.707-11.718 6.465 0 11.707 5.246 11.707 11.718zM0 88.415h178.297M89.149 88.415c16.283 0 29.483 13.214 29.483 29.514 0 16.3-13.2 29.513-29.483 29.513-16.284 0-29.485-13.214-29.485-29.513 0-16.3 13.201-29.514 29.485-29.514zM0 179.261h178.297M0 22.686h178.297M34.091 9.031v178.473M145.756 9.031v178.473M0 157.757h178.297M167.826 9.264v178.472M12.558 9.264v178.472"/>
        </g>
        <path fill="url(#a)" fill-rule="nonzero" d="M79.287 2.367c-13.633 0-24.686 11.04-24.686 24.656 0 13.617 11.053 24.655 24.686 24.655 13.634 0 24.687-11.038 24.687-24.655S92.92 2.367 79.287 2.367zm0-1.878c14.672 0 26.567 11.88 26.567 26.534 0 14.654-11.894 26.533-26.567 26.533-14.672 0-26.566-11.88-26.566-26.533C52.721 12.369 64.616.489 79.287.489zM73.63 67.758v59.208l-1.072-.151c-23.369-3.3-40.95-23.35-40.95-47.146 0-14.046 6.127-27.101 16.578-36.094l.662-.569L73.63 67.758zm-1.88.778L48.758 45.573c-9.641 8.616-15.27 20.898-15.27 34.096 0 22.492 16.353 41.501 38.262 45.122V68.536zm37.908-25.585l.661.567c10.492 8.993 16.647 22.074 16.647 36.152 0 23.75-17.516 43.775-40.828 47.128l-1.074.154V67.515l24.594-24.564zM86.944 68.293v56.479c21.852-3.671 38.142-22.655 38.142-45.102 0-13.229-5.655-25.538-15.336-34.155L86.944 68.293zm64.812-19.206c4.104 9.694 6.186 19.984 6.186 30.582 0 10.597-2.082 20.888-6.186 30.581a78.277 78.277 0 0 1-16.852 24.967 78.392 78.392 0 0 1-24.997 16.83c-9.704 4.1-20.007 6.179-30.62 6.179s-20.915-2.079-30.62-6.179a78.388 78.388 0 0 1-24.996-16.83A78.259 78.259 0 0 1 6.82 110.25C2.715 100.56.633 90.27.633 79.67c0-10.601 2.082-20.892 6.187-30.583a78.265 78.265 0 0 1 16.85-24.966c.83-.83 1.683-1.643 2.556-2.44l.663-.606L43.824 37.99l-.748.66A56.985 56.985 0 0 0 40.569 41c-10.343 10.33-16.037 24.06-16.037 38.67 0 14.61 5.694 28.34 16.037 38.67 10.344 10.33 24.092 16.018 38.718 16.018 14.627 0 28.375-5.688 38.718-16.018 10.344-10.33 16.038-24.06 16.038-38.67 0-14.61-5.694-28.34-16.038-38.67a56.093 56.093 0 0 0-2.57-2.405l-.75-.661 16.935-16.916.663.604c.896.816 1.77 1.65 2.621 2.5a78.283 78.283 0 0 1 16.852 24.966zM26.835 23.677A76.911 76.911 0 0 0 25 25.448a76.388 76.388 0 0 0-16.449 24.37c-4.006 9.46-6.038 19.5-6.038 29.85 0 10.349 2.032 20.39 6.038 29.85A76.381 76.381 0 0 0 25 133.889a76.508 76.508 0 0 0 24.4 16.429c9.472 4.002 19.526 6.03 29.887 6.03 10.362 0 20.416-2.028 29.887-6.03a76.512 76.512 0 0 0 24.401-16.429 76.399 76.399 0 0 0 16.45-24.37c4.005-9.462 6.037-19.503 6.037-29.85 0-10.347-2.032-20.389-6.037-29.85a76.406 76.406 0 0 0-16.45-24.37c-.62-.62-1.254-1.23-1.899-1.833l-14.252 14.236c.665.605 1.3 1.21 1.91 1.819 10.697 10.682 16.59 24.89 16.59 39.998 0 15.108-5.893 29.316-16.59 39.998-10.695 10.682-24.92 16.568-40.047 16.568-15.125 0-29.351-5.886-40.048-16.568-10.695-10.682-16.587-24.89-16.587-39.998 0-15.107 5.892-29.315 16.588-39.999.59-.589 1.205-1.174 1.847-1.76L26.835 23.677z" transform="translate(11 21)"/>
    </g>
</svg>
